<svg width="35" height="35" viewBox="0 0 35 35" fill="none" xmlns="http://www.w3.org/2000/svg">
<path d="M28.1888 8.28337L19.0451 3.35421C18.0826 2.82921 16.9159 2.82921 15.9534 3.35421L6.80964 8.28337C6.1388 8.64796 5.73047 9.34796 5.73047 10.15C5.73047 10.9375 6.1388 11.6521 6.80964 12.0167L15.9534 16.9458C16.4347 17.2083 16.9742 17.3396 17.4992 17.3396C18.0242 17.3396 18.5638 17.2083 19.0451 16.9458L28.1888 12.0167C28.8597 11.6521 29.268 10.9521 29.268 10.15C29.268 9.34796 28.8597 8.64796 28.1888 8.28337Z" fill="#ECECEC"/>
<path opacity="0.4" d="M14.4524 18.6521L5.93574 14.3938C5.27949 14.0729 4.52116 14.1021 3.90866 14.4813C3.28158 14.875 2.91699 15.5313 2.91699 16.2604V24.2958C2.91699 25.6813 3.68991 26.9354 4.92949 27.5625L13.4316 31.8208C13.7232 31.9667 14.0441 32.0396 14.3649 32.0396C14.7441 32.0396 15.1232 31.9375 15.4587 31.7333C16.0857 31.3542 16.4503 30.6833 16.4503 29.9542V21.9188C16.4649 20.5188 15.692 19.2646 14.4524 18.6521Z" fill="#909295"/>
<path opacity="0.4" d="M31.0924 14.4815C30.4654 14.1023 29.707 14.0585 29.0654 14.394L20.5633 18.6522C19.3237 19.2793 18.5508 20.5189 18.5508 21.9189V29.9543C18.5508 30.6835 18.9154 31.3543 19.5424 31.7335C19.8779 31.9376 20.257 32.0397 20.6362 32.0397C20.957 32.0397 21.2779 31.9668 21.5695 31.821L30.0716 27.5626C31.3112 26.9356 32.0841 25.696 32.0841 24.296V16.2606C32.0841 15.5314 31.7195 14.8751 31.0924 14.4815Z" fill="#909295"/>
</svg>
