<svg width="221" height="52" viewBox="0 0 221 52" fill="none" xmlns="http://www.w3.org/2000/svg">
<g clip-path="url(#clip0_693_97)">
<mask id="mask0_693_97" style="mask-type:luminance" maskUnits="userSpaceOnUse" x="0" y="0" width="221" height="52">
<path d="M221 0H0V52H221V0Z" fill="white"/>
</mask>
<g mask="url(#mask0_693_97)">
<path d="M70.9324 14.6145L63.0241 37.2097H62.3681L54.4595 14.6145H55.5042L62.6957 35.5636L69.8878 14.6145H70.9324ZM74.4233 14.6145H75.3784V37.0597H74.4233V14.6145ZM95.3418 14.6145L87.4333 37.2097H86.7773L78.8688 14.6145H79.9139L87.1049 35.5636L94.2975 14.6145H95.3418ZM98.8327 14.6145H99.7875V37.0597H98.8327V14.6145ZM104.621 37.0598V14.6145H111.097C118.17 14.6145 119.692 18.8043 119.692 25.837C119.692 32.8698 118.17 37.0596 111.097 37.0596L104.621 37.0598ZM105.576 36.1922H110.948C117.155 36.1922 118.706 32.7807 118.706 25.8373C118.706 18.8943 117.155 15.4825 110.948 15.4825H105.576V36.1922ZM132.433 14.6145H136.611L140.402 32.3012L143.325 14.6145H146.877L142.669 37.3292H138.581L134.523 18.6247L130.463 37.3292H126.375L122.168 14.6145H125.718L128.643 32.3012L132.433 14.6145ZM149.233 25.8372C149.233 19.4927 150.665 14.2556 157.858 14.2556C165.049 14.2556 166.481 19.4926 166.481 25.8372C166.481 32.1817 165.049 37.4188 157.858 37.4188C150.665 37.4189 149.233 32.1817 149.233 25.8372ZM152.665 25.8372C152.665 31.1642 153.619 34.3664 157.858 34.3664C162.096 34.3664 163.05 31.1641 163.05 25.8372C163.05 20.5105 162.095 17.308 157.858 17.308C153.619 17.308 152.665 20.5105 152.665 25.8372ZM173.165 37.0598H169.823V14.6145H177.105C182.895 14.6145 184.745 17.2184 184.745 21.2885C184.745 24.1911 183.849 26.3164 181.103 27.2741L185.79 37.0598H181.879L177.821 27.9323H173.165V37.0598ZM173.165 24.8796H177.582C180.686 24.8796 181.103 23.1141 181.103 21.2884C181.103 19.4332 180.686 17.6972 177.582 17.6972H173.165V24.8796ZM193.456 27.1845L191.667 29.3387L191.697 37.0598H188.354V14.6145H191.697L191.667 25.0295L199.725 14.6145H203.842L195.607 24.5502L204.589 37.0598H200.35L193.456 27.1845ZM221.001 30.2667C221.001 34.5162 218.494 37.4189 212.496 37.4189C210.257 37.4189 207.393 36.9103 205.87 36.1317V32.7807C207.095 33.3192 209.243 34.2473 212.287 34.2473C216.316 34.2473 217.51 32.6012 217.51 30.4759C217.51 27.9922 216.465 27.3939 213.452 27.0043C207.99 26.3164 205.87 24.85 205.87 20.7499C205.87 17.458 207.72 14.2556 213.81 14.2556C216.704 14.2556 218.734 14.7641 219.867 15.3324V18.5951C218.226 17.8769 216.196 17.4277 213.988 17.4277C210.496 17.4277 209.302 18.8646 209.302 20.7798C209.302 23.2038 210.675 23.6231 213.63 24.0118C218.285 24.6403 221.001 25.6874 221.001 30.2667Z" fill="#0A1824"/>
<path d="M20.8561 0.548803L11.5522 5.93631L2.25183 11.3202C0.989302 12.0501 0 13.767 0 15.2282L0.00118227 25.9995L0 36.7722C0 38.2317 0.988905 39.9487 2.25145 40.6807L11.5524 46.0656L20.8563 51.451C22.1172 52.1831 24.0938 52.1831 25.3555 51.4507L34.6572 46.0656L43.9608 40.6809C45.2227 39.9477 46.2108 38.2309 46.2108 36.7722L46.2097 25.9994L46.2108 15.2282C46.2108 13.768 45.2225 12.0517 43.961 11.3204L34.6571 5.93631L25.3549 0.548934C24.7427 0.194702 23.9437 6.67587e-08 23.1048 6.67587e-08C22.2648 -0.000131667 21.4663 0.194702 20.8561 0.548803ZM21.2014 1.14859C21.3474 1.50901 21.5473 1.74811 21.5473 1.74811C21.9448 1.51731 22.5126 1.38505 23.1048 1.38505C23.6966 1.38505 24.2651 1.51744 24.6645 1.7485L33.9665 7.13614L43.2702 12.5202C44.1154 13.0099 44.8295 14.25 44.8295 15.2284L44.8281 25.9996L44.8295 36.7725C44.8295 37.7498 44.1149 38.9907 43.269 39.482L33.9668 44.8658L24.6643 50.2515C23.8336 50.7337 22.3776 50.7337 21.5473 50.2518L12.2431 44.8658L2.94254 39.4812C2.09643 38.9908 1.38142 37.75 1.38142 36.7725L1.3826 25.9998L1.38142 15.2282C1.38142 14.2496 2.09617 13.0095 2.94216 12.5205L12.2431 7.1364L21.5473 1.74811" fill="#0A1824"/>
<path d="M30.1095 13.382H34.1352L23.0056 37.841L11.6392 13.382H15.9017L23.0056 28.8175L30.1095 13.382Z" fill="#0A1824"/>
</g>
</g>
<defs>
<clipPath id="clip0_693_97">
<rect width="221" height="52" fill="white"/>
</clipPath>
</defs>
</svg>
