<svg width="250" height="248" viewBox="0 0 250 248" fill="none" xmlns="http://www.w3.org/2000/svg">
<path d="M133.73 216.638L140.185 239.911H136.491L131.957 221.888H131.741L127.026 239.911H123.366L118.651 221.876H118.435L113.912 239.911H110.207L116.673 216.638H120.207L125.105 234.07H125.287L130.185 216.638H133.73Z" fill="black"/>
<path d="M102.141 213.374C103.811 213.786 105.161 214.497 106.191 215.508C107.213 216.524 107.89 217.764 108.224 219.227C108.549 220.696 108.494 222.309 108.061 224.067C107.633 225.803 106.932 227.254 105.959 228.418C104.978 229.581 103.811 230.389 102.458 230.844C101.098 231.297 99.6311 231.329 98.057 230.941C97.1008 230.706 96.213 230.319 95.3935 229.782C94.5741 229.244 93.891 228.549 93.3443 227.696C92.7976 226.844 92.4516 225.826 92.3062 224.643C92.159 223.468 92.2748 222.112 92.6537 220.574L92.942 219.405L106.414 222.725L105.805 225.197L95.5656 222.673C95.3517 223.541 95.3388 224.353 95.5269 225.11C95.7131 225.873 96.0782 226.529 96.622 227.077C97.1585 227.622 97.8534 228 98.7067 228.211C99.6335 228.439 100.499 228.41 101.303 228.125C102.097 227.845 102.772 227.387 103.327 226.751C103.872 226.121 104.249 225.383 104.457 224.537L104.933 222.606C105.213 221.473 105.252 220.461 105.05 219.568C104.841 218.674 104.428 217.929 103.811 217.332C103.191 216.742 102.4 216.329 101.436 216.091C100.811 215.937 100.219 215.885 99.6609 215.935C99.1007 215.992 98.5886 216.154 98.1246 216.422C97.6606 216.69 97.2641 217.064 96.9349 217.545L93.9512 216.213C94.4279 215.355 95.0751 214.66 95.8928 214.128C96.7014 213.602 97.6382 213.267 98.7035 213.124C99.7595 212.986 100.905 213.07 102.141 213.374Z" fill="black"/>
<path d="M45.5427 198.293L48.1965 200.644C47.7962 201.302 47.5441 201.969 47.4401 202.646C47.3362 203.323 47.3524 203.99 47.4887 204.648C47.6251 205.305 47.875 205.931 48.2383 206.526C48.596 207.116 49.0527 207.658 49.6084 208.15C50.6121 209.039 51.7345 209.583 52.9754 209.782C54.2108 209.975 55.4901 209.788 56.8135 209.219C58.1312 208.646 59.413 207.656 60.6588 206.25C61.9148 204.832 62.7479 203.435 63.1584 202.058C63.5631 200.675 63.5896 199.383 63.2378 198.181C62.886 196.978 62.2139 195.938 61.2216 195.058C60.6716 194.571 60.0846 194.183 59.4606 193.893C58.826 193.604 58.1767 193.429 57.5129 193.367C56.849 193.305 56.1898 193.364 55.5352 193.543C54.8699 193.723 54.2372 194.043 53.6371 194.503L50.9908 192.143C51.8912 191.413 52.8645 190.868 53.9108 190.51C54.9463 190.152 56.0128 189.993 57.1101 190.034C58.1966 190.076 59.271 190.314 60.333 190.749C61.3951 191.184 62.4053 191.826 63.3636 192.675C64.872 194.011 65.8994 195.559 66.4459 197.318C66.9874 199.084 67.0055 200.937 66.5004 202.878C65.9896 204.814 64.9129 206.709 63.2701 208.563C61.6224 210.423 59.868 211.718 58.007 212.448C56.1409 213.183 54.3017 213.386 52.4892 213.055C50.6717 212.73 49.0116 211.902 47.509 210.571C46.5847 209.752 45.8408 208.855 45.2774 207.881C44.7032 206.906 44.3218 205.88 44.1332 204.802C43.9395 203.73 43.9569 202.642 44.1854 201.539C44.4088 200.441 44.8612 199.359 45.5427 198.293Z" fill="black"/>
<path d="M50.5724 179.23L36.2076 189.146L34.342 186.443L36.6239 184.868L36.5206 184.718C35.5667 184.99 34.6404 184.948 33.7416 184.593C32.8322 184.235 32.087 183.636 31.506 182.794C31.3855 182.62 31.2498 182.41 31.0987 182.164C30.9433 181.912 30.8277 181.711 30.7517 181.561L33.4264 179.715C33.4727 179.849 33.5761 180.072 33.7366 180.385C33.891 180.702 34.0671 181.004 34.2651 181.29C34.7212 181.951 35.2682 182.444 35.906 182.767C36.5332 183.089 37.1963 183.23 37.8954 183.189C38.5883 183.153 39.2465 182.919 39.87 182.489L48.6422 176.434L50.5724 179.23Z" fill="black"/>
<path d="M38.2507 155.634C38.8605 157.242 39.0422 158.758 38.7956 160.18C38.5393 161.598 37.9038 162.86 36.8892 163.965C35.8647 165.067 34.506 165.939 32.8131 166.581C31.1414 167.215 29.5498 167.462 28.0384 167.322C26.5243 167.175 25.1959 166.674 24.0534 165.819C22.9081 164.957 22.048 163.768 21.4732 162.253C21.1239 161.332 20.9377 160.381 20.9146 159.402C20.8914 158.422 21.0754 157.465 21.4665 156.531C21.8576 155.597 22.4986 154.734 23.3894 153.942C24.2731 153.153 25.4552 152.478 26.9357 151.917L28.0619 151.489L32.9821 164.463L30.602 165.365L26.8626 155.505C26.0267 155.822 25.351 156.273 24.8353 156.857C24.3126 157.445 23.9804 158.118 23.8387 158.876C23.6943 159.628 23.7779 160.414 24.0895 161.236C24.428 162.129 24.9431 162.824 25.6348 163.324C26.3167 163.819 27.0768 164.114 27.9151 164.209C28.7436 164.3 29.5651 164.191 30.3797 163.882L32.2391 163.177C33.33 162.763 34.1854 162.22 34.8053 161.547C35.4226 160.868 35.8015 160.104 35.942 159.257C36.0754 158.412 35.9661 157.526 35.6142 156.598C35.3858 155.996 35.0927 155.479 34.7346 155.048C34.3695 154.619 33.9449 154.29 33.4608 154.06C32.9767 153.831 32.4433 153.717 31.8608 153.719L31.2623 150.507C32.2391 150.412 33.1786 150.55 34.0808 150.92C34.9733 151.287 35.781 151.868 36.504 152.663C37.2171 153.454 37.7994 154.444 38.2507 155.634Z" fill="black"/>
<path d="M33.4143 136.038C33.5476 137.136 33.4651 138.153 33.1667 139.09C32.8608 140.027 32.3483 140.803 31.6292 141.417C30.9092 142.023 29.9813 142.396 28.8457 142.534C27.8681 142.652 27.0405 142.562 26.3632 142.263C25.6858 141.963 25.124 141.516 24.6779 140.922C24.2318 140.327 23.8668 139.647 23.5829 138.88C23.299 138.113 23.0584 137.326 22.8611 136.518C22.6147 135.495 22.4147 134.664 22.261 134.027C22.0997 133.39 21.911 132.936 21.6949 132.664C21.4788 132.393 21.1677 132.282 20.7616 132.331L20.6826 132.341C19.6974 132.46 18.9679 132.831 18.494 133.454C18.0192 134.068 17.848 134.921 17.9804 136.012C18.1183 137.147 18.4789 138.011 19.0622 138.605C19.6371 139.191 20.2442 139.571 20.8835 139.746L20.5464 143.003C19.4479 142.755 18.5314 142.309 17.797 141.666C17.0541 141.016 16.4785 140.235 16.0701 139.323C15.6542 138.412 15.3828 137.433 15.2559 136.388C15.1719 135.696 15.1656 134.953 15.237 134.158C15.3 133.357 15.5047 132.592 15.8512 131.863C16.1967 131.127 16.7416 130.492 17.4858 129.959C18.2225 129.427 19.2226 129.084 20.4861 128.931L31.9924 127.533L32.3924 130.827L30.0234 131.115L30.0399 131.25C30.5026 131.416 30.9709 131.691 31.4451 132.076C31.9192 132.461 32.3369 132.979 32.6983 133.629C33.0596 134.28 33.2983 135.083 33.4143 136.038ZM30.6178 135.633C30.5046 134.701 30.2236 133.926 29.7747 133.309C29.3249 132.684 28.782 132.235 28.1458 131.961C27.5013 131.681 26.8368 131.582 26.1524 131.665L23.9189 131.936C24.0538 132.042 24.1949 132.262 24.3422 132.595C24.4811 132.921 24.6146 133.298 24.7427 133.725C24.8634 134.153 24.9789 134.57 25.0893 134.977C25.1922 135.384 25.2793 135.724 25.3507 135.998C25.5128 136.642 25.7246 137.223 25.9859 137.741C26.2462 138.251 26.5803 138.646 26.9881 138.924C27.3874 139.196 27.8879 139.296 28.4895 139.223C29.3243 139.121 29.9186 138.736 30.2724 138.068C30.6187 137.4 30.7338 136.588 30.6178 135.633Z" fill="black"/>
<path d="M16.094 105.878L18.8014 106.207L17.6522 115.671L14.9448 115.342L16.094 105.878ZM11.1017 112.3L11.5112 108.927L27.9022 110.918C28.5565 110.997 29.061 110.959 29.4156 110.804C29.7627 110.647 30.0152 110.422 30.173 110.129C30.3241 109.826 30.4221 109.491 30.4668 109.123C30.4997 108.852 30.5096 108.613 30.4967 108.405C30.4838 108.197 30.4728 108.036 30.464 107.92L33.3243 107.65C33.3758 107.854 33.4172 108.142 33.4486 108.512C33.4875 108.883 33.4778 109.339 33.4196 109.882C33.3268 110.771 33.0685 111.579 32.6444 112.306C32.2204 113.033 31.6336 113.591 30.8842 113.981C30.1348 114.371 29.2374 114.502 28.1921 114.375L11.1017 112.3Z" fill="black"/>
<path d="M38.9006 89.9278C38.2907 91.5357 37.422 92.7902 36.2943 93.6914C35.1623 94.5827 33.8498 95.1058 32.3569 95.2608C30.8597 95.4059 29.2646 95.1575 27.5716 94.5154C25.8999 93.8814 24.5448 93.011 23.5062 91.9041C22.4702 90.7901 21.8081 89.5343 21.5198 88.1367C21.2342 86.7321 21.3789 85.2718 21.9538 83.7559C22.303 82.8351 22.7938 82.0003 23.4261 81.2517C24.0584 80.503 24.8307 79.9087 25.743 79.4687C26.6552 79.0288 27.7072 78.8079 28.8989 78.8062C30.0836 78.8017 31.4161 79.0802 32.8965 79.6417L34.0228 80.0688L29.1027 93.0421L26.7226 92.1395L30.4621 82.2793C29.6262 81.9623 28.8215 81.8516 28.048 81.9472C27.2674 82.04 26.5725 82.3234 25.9634 82.7973C25.3569 83.2641 24.8979 83.9083 24.5862 84.73C24.2478 85.6225 24.1718 86.485 24.3585 87.3174C24.5407 88.14 24.914 88.8649 25.4783 89.4921C26.0381 90.1096 26.7253 90.5728 27.5399 90.8817L29.3993 91.5869C30.4902 92.0006 31.4907 92.1612 32.4007 92.0689C33.3135 91.9694 34.1034 91.6492 34.7704 91.1081C35.4304 90.5644 35.9363 89.8285 36.2882 88.9006C36.5166 88.2985 36.6398 87.7173 36.6578 87.157C36.6688 86.594 36.5692 86.066 36.3591 85.5731C36.149 85.0802 35.8253 84.6415 35.3878 84.2568L37.07 81.4554C37.8641 82.032 38.4759 82.7583 38.9053 83.6341C39.3304 84.5002 39.5498 85.4706 39.5635 86.5453C39.5729 87.6103 39.3519 88.7378 38.9006 89.9278Z" fill="black"/>
<path d="M55.3101 37.9915L57.1186 40.0329L49.9822 46.3552L48.1737 44.3138L55.3101 37.9915ZM47.3145 39.4882L49.8577 37.2351L60.8068 49.594C61.2438 50.0873 61.6466 50.3935 62.0151 50.5123C62.3785 50.6256 62.7167 50.6245 63.0295 50.5093C63.3431 50.3834 63.6387 50.1973 63.9166 49.9512C64.1207 49.7703 64.2868 49.5979 64.4148 49.4339C64.5428 49.2699 64.6418 49.1417 64.7118 49.0494L67.0323 50.7434C66.9351 50.9307 66.7756 51.1733 66.5536 51.4711C66.3367 51.7746 66.0266 52.1101 65.6233 52.4775C64.9643 53.0816 64.235 53.5151 63.4356 53.778C62.6361 54.0409 61.8267 54.0698 61.0073 53.8646C60.1879 53.6594 59.429 53.1627 58.7307 52.3745L47.3145 39.4882Z" fill="black"/>
<path d="M73.6759 33.9464L78.4921 43.1229L75.4836 44.7019L64.6682 24.0949L67.6365 22.5371L71.6606 30.2043L71.8518 30.104C71.7774 29.0821 71.9841 28.1309 72.4716 27.2504C72.9592 26.3699 73.8034 25.6146 75.0041 24.9844C76.064 24.4281 77.1041 24.1603 78.1245 24.1809C79.1516 24.198 80.1102 24.5247 81.0004 25.1612C81.8938 25.7875 82.6784 26.7446 83.3544 28.0325L88.5139 37.8631L85.5053 39.4421L80.536 29.9738C79.941 28.8401 79.188 28.1145 78.277 27.797C77.3624 27.4727 76.3853 27.5834 75.3456 28.1291C74.6345 28.5023 74.0765 28.9877 73.6714 29.5853C73.2731 30.1794 73.0661 30.8527 73.0504 31.6053C73.0379 32.3476 73.2464 33.128 73.6759 33.9464Z" fill="black"/>
<path d="M103.92 33.463C102.25 33.8746 100.725 33.8723 99.3423 33.4561C97.9657 33.0308 96.7896 32.2478 95.8141 31.1072C94.844 29.9575 94.1424 28.5036 93.7091 26.7456C93.2812 25.0097 93.2278 23.3999 93.5487 21.9164C93.877 20.431 94.5344 19.1727 95.5208 18.1416C96.5146 17.1086 97.7986 16.3981 99.3727 16.0101C100.329 15.7744 101.295 15.7041 102.27 15.7992C103.245 15.8943 104.173 16.1923 105.053 16.6932C105.934 17.194 106.713 17.9343 107.392 18.9141C108.068 19.8865 108.596 21.1413 108.975 22.6786L109.263 23.8482L95.7913 27.1687L95.1821 24.6972L105.421 22.1735C105.207 21.3055 104.841 20.5804 104.323 19.9981C103.803 19.4084 103.175 18.9975 102.439 18.7653C101.711 18.5314 100.92 18.5196 100.066 18.7299C99.1396 18.9583 98.3867 19.3858 97.8077 20.0123C97.2342 20.6296 96.8496 21.3486 96.654 22.1692C96.4639 22.9807 96.4731 23.8094 96.6816 24.6553L97.1575 26.5862C97.4367 27.7189 97.8728 28.6336 98.4658 29.3301C99.0662 30.0248 99.7784 30.4929 100.603 30.7345C101.425 30.9687 102.318 30.9671 103.282 30.7296C103.907 30.5755 104.455 30.3467 104.926 30.0433C105.396 29.7325 105.774 29.3506 106.06 28.8978C106.347 28.4449 106.524 27.9291 106.592 27.3506L109.853 27.1437C109.83 28.1248 109.579 29.0408 109.102 29.8918C108.631 30.7336 107.957 31.4654 107.081 32.0872C106.209 32.6998 105.156 33.1584 103.92 33.463Z" fill="black"/>
<path d="M140.703 31.6749L146.273 9.07844L149.572 9.89157L147.502 18.288L147.701 18.337C147.979 18.031 148.355 17.6908 148.83 17.3162C149.305 16.9416 149.904 16.6604 150.63 16.4724C151.357 16.277 152.246 16.309 153.298 16.5683C154.666 16.9055 155.802 17.5522 156.705 18.5083C157.609 19.4644 158.205 20.6687 158.495 22.1211C158.792 23.5753 158.715 25.2182 158.263 27.0498C157.812 28.8813 157.12 30.3765 156.186 31.5353C155.255 32.6868 154.169 33.4842 152.928 33.9274C151.689 34.3633 150.386 34.4127 149.018 34.0754C147.988 33.8216 147.188 33.4412 146.619 32.9341C146.057 32.4288 145.649 31.8992 145.396 31.3451C145.142 30.7911 144.96 30.3094 144.851 29.9L144.575 29.832L143.925 32.469L140.703 31.6749ZM146.024 23.998C145.731 25.1897 145.646 26.2768 145.771 27.2594C145.895 28.2419 146.222 29.0677 146.752 29.7366C147.283 30.3981 148.023 30.8458 148.972 31.0797C149.958 31.3227 150.846 31.2646 151.637 30.9055C152.429 30.5391 153.106 29.9452 153.667 29.1238C154.236 28.3043 154.66 27.3282 154.939 26.1954C155.215 25.0773 155.293 24.0316 155.174 23.0582C155.063 22.0866 154.736 21.2608 154.193 20.5809C153.658 19.9029 152.894 19.4415 151.901 19.1967C150.945 18.961 150.075 19.008 149.291 19.3377C148.515 19.6691 147.849 20.2345 147.293 21.0338C146.737 21.8331 146.314 22.8211 146.024 23.998Z" fill="black"/>
<path d="M169.07 42.028C167.547 41.2289 166.406 40.2152 165.648 38.9872C164.899 37.7559 164.538 36.39 164.564 34.8893C164.601 33.3855 165.04 31.832 165.881 30.2287C166.712 28.6457 167.739 27.4053 168.963 26.5077C170.194 25.6136 171.52 25.1077 172.943 24.9899C174.371 24.8757 175.804 25.1953 177.239 25.9487C178.111 26.4064 178.881 26.9942 179.548 27.7122C180.215 28.4302 180.712 29.2685 181.038 30.2271C181.365 31.1857 181.458 32.2567 181.316 33.4399C181.177 34.6164 180.74 35.9057 180.004 37.3076L179.445 38.3742L167.159 31.9262L168.342 29.6723L177.679 34.573C178.095 33.7815 178.302 32.996 178.3 32.2166C178.302 31.4304 178.105 30.7065 177.708 30.0447C177.317 29.3864 176.733 28.853 175.955 28.4446C175.11 28.001 174.263 27.8217 173.414 27.9067C172.575 27.9884 171.811 28.2716 171.12 28.7561C170.44 29.2375 169.897 29.8639 169.492 30.6353L168.568 32.3961C168.026 33.4292 167.746 34.403 167.728 35.3175C167.716 36.2356 167.939 37.0584 168.396 37.7858C168.856 38.5064 169.525 39.0974 170.404 39.5586C170.974 39.8578 171.536 40.0502 172.091 40.1356C172.648 40.2144 173.184 40.1792 173.699 40.03C174.213 39.8809 174.688 39.6124 175.123 39.2244L177.701 41.2321C177.033 41.9509 176.238 42.4707 175.317 42.7914C174.406 43.109 173.416 43.2098 172.347 43.0939C171.289 42.9748 170.197 42.6195 169.07 42.028Z" fill="black"/>
<path d="M200.701 48.6507L198.034 47.0169C198.199 46.6366 198.295 46.2203 198.321 45.7679C198.353 45.3205 198.268 44.856 198.067 44.3744C197.867 43.8929 197.502 43.4185 196.975 42.9513C196.255 42.3133 195.511 41.9424 194.742 41.8386C193.979 41.7291 193.374 41.9267 192.927 42.4314C192.54 42.868 192.39 43.3628 192.477 43.9156C192.564 44.4685 192.893 45.149 193.462 45.9571L195.115 48.2721C196.071 49.615 196.588 50.8368 196.665 51.9377C196.743 53.0385 196.372 54.0511 195.553 54.9754C194.86 55.758 194.015 56.2545 193.019 56.465C192.033 56.6749 190.985 56.5961 189.873 56.2286C188.767 55.8662 187.687 55.2178 186.632 54.2834C185.169 52.9873 184.252 51.6179 183.88 50.1753C183.513 48.727 183.738 47.3316 184.553 45.9889L187.342 47.7924C186.928 48.5688 186.813 49.3324 186.998 50.0833C187.188 50.8285 187.666 51.5402 188.431 52.2184C189.265 52.9569 190.084 53.3742 190.89 53.4704C191.7 53.5609 192.329 53.3538 192.776 52.8492C193.138 52.4409 193.289 51.9622 193.229 51.413C193.174 50.8689 192.898 50.2497 192.4 49.5553L190.618 47.1113C189.645 45.7533 189.135 44.5123 189.088 43.3881C189.048 42.2689 189.439 41.2444 190.263 40.3144C190.946 39.5432 191.759 39.0593 192.703 38.8627C193.646 38.6661 194.641 38.7428 195.687 39.0927C196.738 39.437 197.755 40.0437 198.736 40.9128C200.147 42.1637 200.988 43.4545 201.256 44.7853C201.529 46.1105 201.344 47.3989 200.701 48.6507Z" fill="black"/>
<path d="M218.65 64.5784L216.405 66.1276L210.989 58.2812L213.234 56.732L218.65 64.5784ZM218.128 56.4607L220.058 59.2569L206.469 68.6365C205.927 69.0109 205.574 69.3738 205.412 69.7252C205.256 70.0724 205.216 70.4082 205.293 70.7327C205.38 71.0591 205.529 71.3751 205.74 71.6806C205.895 71.905 206.046 72.0907 206.193 72.2375C206.341 72.3843 206.456 72.498 206.539 72.5786L204.578 74.6781C204.404 74.559 204.182 74.3714 203.913 74.1151C203.638 73.8632 203.342 73.5149 203.026 73.0703C202.506 72.3433 202.163 71.5671 201.999 70.7418C201.834 69.9165 201.903 69.1095 202.206 68.3208C202.508 67.532 203.093 66.8386 203.959 66.2404L218.128 56.4607Z" fill="black"/>
<path d="M217.102 111.777C216.932 110.378 217.138 109.086 217.719 107.901C218.309 106.723 219.231 105.741 220.486 104.955C221.75 104.176 223.318 103.673 225.191 103.445C227.064 103.218 228.703 103.336 230.11 103.798C231.518 104.268 232.642 105.009 233.482 106.022C234.323 107.034 234.827 108.235 234.996 109.627C235.127 110.702 235.051 111.589 234.77 112.287C234.497 112.992 234.145 113.553 233.715 113.972C233.286 114.398 232.903 114.734 232.567 114.981L232.592 115.184L241.176 114.142L241.586 117.515L218.483 120.32L218.083 117.026L220.779 116.699L220.745 116.417C220.352 116.259 219.895 116.016 219.375 115.69C218.855 115.372 218.378 114.903 217.945 114.284C217.511 113.665 217.23 112.829 217.102 111.777ZM220.069 112.172C220.187 113.142 220.542 113.931 221.135 114.538C221.736 115.152 222.516 115.576 223.476 115.811C224.436 116.053 225.526 116.1 226.744 115.952C227.947 115.806 228.979 115.505 229.84 115.049C230.7 114.594 231.341 114.001 231.764 113.27C232.187 112.54 232.338 111.682 232.219 110.697C232.095 109.681 231.729 108.867 231.121 108.254C230.512 107.641 229.732 107.217 228.78 106.982C227.829 106.754 226.782 106.709 225.639 106.848C224.48 106.989 223.46 107.288 222.577 107.746C221.694 108.205 221.023 108.805 220.563 109.548C220.112 110.297 219.948 111.172 220.069 112.172Z" fill="black"/>
<path d="M217.065 135.715C217.272 134.008 217.815 132.582 218.695 131.437C219.581 130.3 220.73 129.478 222.142 128.971C223.561 128.471 225.169 128.331 226.967 128.549C228.742 128.765 230.266 129.286 231.539 130.112C232.811 130.945 233.755 132.006 234.369 133.294C234.983 134.59 235.192 136.042 234.996 137.652C234.878 138.629 234.601 139.557 234.166 140.435C233.731 141.314 233.124 142.076 232.343 142.721C231.563 143.366 230.594 143.833 229.437 144.12C228.288 144.407 226.928 144.456 225.356 144.265L224.16 144.12L225.833 130.346L228.36 130.653L227.088 141.121C227.976 141.229 228.784 141.144 229.512 140.866C230.248 140.589 230.855 140.148 231.333 139.542C231.81 138.944 232.101 138.208 232.207 137.336C232.322 136.388 232.189 135.533 231.809 134.769C231.435 134.014 230.899 133.399 230.201 132.926C229.51 132.46 228.732 132.175 227.867 132.07L225.893 131.83C224.735 131.689 223.725 131.773 222.863 132.08C222.001 132.395 221.311 132.895 220.792 133.58C220.282 134.266 219.967 135.102 219.847 136.087C219.769 136.726 219.789 137.32 219.906 137.868C220.03 138.418 220.253 138.906 220.575 139.335C220.896 139.763 221.316 140.111 221.833 140.38L220.87 143.503C219.961 143.133 219.193 142.574 218.566 141.827C217.946 141.087 217.501 140.198 217.231 139.158C216.967 138.126 216.911 136.978 217.065 135.715Z" fill="black"/>
<path d="M222.089 167.639L222.671 164.566C223.085 164.585 223.508 164.527 223.941 164.391C224.37 164.263 224.775 164.019 225.154 163.66C225.533 163.302 225.847 162.793 226.097 162.134C226.438 161.235 226.521 160.407 226.346 159.652C226.177 158.899 225.778 158.404 225.148 158.165C224.602 157.958 224.086 157.993 223.6 158.271C223.114 158.548 222.594 159.096 222.041 159.915L220.463 162.282C219.546 163.652 218.587 164.569 217.585 165.031C216.583 165.494 215.505 165.506 214.35 165.068C213.372 164.698 212.609 164.084 212.059 163.227C211.513 162.38 211.215 161.372 211.164 160.202C211.111 159.039 211.334 157.799 211.834 156.482C212.527 154.654 213.482 153.311 214.699 152.452C215.923 151.595 217.307 151.31 218.852 151.596L218.155 154.844C217.282 154.732 216.527 154.895 215.89 155.334C215.261 155.776 214.765 156.475 214.402 157.432C214.007 158.473 213.908 159.387 214.104 160.174C214.306 160.964 214.723 161.479 215.353 161.718C215.863 161.911 216.364 161.883 216.857 161.632C217.346 161.388 217.827 160.91 218.3 160.198L219.953 157.665C220.878 156.274 221.857 155.357 222.892 154.915C223.924 154.48 225.021 154.483 226.182 154.923C227.146 155.289 227.887 155.877 228.405 156.69C228.923 157.502 229.204 158.459 229.248 159.562C229.299 160.667 229.092 161.832 228.627 163.057C227.958 164.821 227.049 166.064 225.9 166.787C224.758 167.513 223.488 167.797 222.089 167.639Z" fill="black"/>
<path d="M202.706 175.069L217.071 184.984L215.141 187.78L200.776 177.865L202.706 175.069ZM218.313 187.926C218.648 187.44 219.099 187.134 219.664 187.008C220.231 186.894 220.742 186.993 221.197 187.307C221.659 187.626 221.933 188.068 222.021 188.635C222.11 189.212 221.987 189.744 221.651 190.23C221.316 190.717 220.864 191.017 220.297 191.132C219.732 191.257 219.219 191.161 218.757 190.842C218.302 190.528 218.03 190.083 217.94 189.505C217.853 188.939 217.977 188.412 218.313 187.926Z" fill="black"/>
<path d="M182.496 187.897C183.534 186.978 184.548 186.322 185.537 185.932C186.521 185.546 187.447 185.368 188.314 185.399C189.182 185.43 189.968 185.609 190.673 185.936L189.286 188.774C188.911 188.661 188.474 188.578 187.972 188.526C187.46 188.474 186.895 188.544 186.277 188.737C185.653 188.936 184.99 189.346 184.287 189.969C183.323 190.823 182.734 191.765 182.522 192.793C182.305 193.815 182.648 194.837 183.552 195.858L185.828 198.427L185.99 198.283C185.896 197.87 185.844 197.365 185.832 196.769C185.814 196.177 185.944 195.536 186.222 194.844C186.5 194.152 187.038 193.452 187.838 192.744C188.87 191.83 190.013 191.247 191.268 190.995C192.523 190.755 193.81 190.894 195.131 191.414C196.452 191.945 197.727 192.905 198.958 194.294C200.189 195.683 201.008 197.083 201.417 198.492C201.82 199.906 201.841 201.244 201.48 202.505C201.124 203.771 200.422 204.869 199.373 205.799C198.562 206.517 197.786 206.961 197.046 207.131C196.311 207.307 195.646 207.339 195.052 207.228C194.452 207.122 193.955 207 193.561 206.864L193.374 207.03L195.25 209.148L192.758 211.355L180.927 198.001C179.932 196.879 179.377 195.726 179.261 194.544C179.144 193.361 179.378 192.203 179.962 191.068C180.54 189.939 181.385 188.882 182.496 187.897ZM189.145 195.351C188.414 195.999 187.947 196.717 187.743 197.504C187.539 198.302 187.591 199.137 187.898 200.009C188.204 200.891 188.756 201.783 189.555 202.685C190.334 203.564 191.15 204.222 192.004 204.661C192.857 205.099 193.702 205.281 194.538 205.208C195.38 205.141 196.172 204.778 196.914 204.12C197.68 203.442 198.142 202.679 198.301 201.83C198.465 200.986 198.378 200.111 198.041 199.206C197.698 198.305 197.158 197.438 196.419 196.604C195.661 195.748 194.865 195.112 194.031 194.697C193.198 194.281 192.365 194.118 191.533 194.207C190.695 194.302 189.9 194.683 189.145 195.351Z" fill="black"/>
<path d="M176.675 213.358L171.858 204.182L174.867 202.603L182.978 218.058L180.091 219.574L178.77 217.058L178.579 217.158C178.653 218.163 178.441 219.113 177.944 220.007C177.44 220.905 176.607 221.658 175.447 222.267C174.394 222.82 173.355 223.083 172.331 223.056C171.311 223.035 170.356 222.707 169.465 222.07C168.575 221.434 167.796 220.478 167.127 219.204L161.967 209.373L164.976 207.794L169.945 217.262C170.533 218.383 171.284 219.105 172.199 219.429C173.117 219.76 174.086 219.658 175.105 219.123C175.803 218.757 176.344 218.28 176.729 217.693C177.108 217.109 177.301 216.443 177.31 215.694C177.316 214.955 177.104 214.177 176.675 213.358Z" fill="black"/>
<path d="M144.028 228.369L146.887 227.102C147.107 227.454 147.395 227.769 147.753 228.048C148.103 228.328 148.533 228.523 149.043 228.631C149.554 228.739 150.151 228.709 150.835 228.54C151.769 228.31 152.497 227.908 153.019 227.335C153.543 226.769 153.724 226.159 153.563 225.504C153.423 224.938 153.101 224.533 152.596 224.291C152.092 224.049 151.345 223.932 150.357 223.942L147.512 223.987C145.864 224.011 144.565 223.742 143.615 223.181C142.665 222.619 142.043 221.739 141.747 220.54C141.497 219.525 141.568 218.547 141.961 217.608C142.348 216.678 143.008 215.859 143.942 215.153C144.869 214.449 146.016 213.928 147.384 213.591C149.282 213.123 150.93 213.146 152.329 213.66C153.729 214.181 154.75 215.158 155.392 216.591L152.323 217.863C151.919 217.081 151.356 216.552 150.633 216.278C149.912 216.011 149.055 216 148.062 216.245C146.98 216.511 146.171 216.948 145.635 217.557C145.1 218.172 144.913 218.807 145.074 219.462C145.205 219.992 145.513 220.388 145.999 220.65C146.478 220.915 147.145 221.039 147.999 221.023L151.023 220.945C152.693 220.916 154.004 221.201 154.956 221.802C155.9 222.404 156.521 223.308 156.818 224.514C157.065 225.515 157.001 226.459 156.627 227.347C156.253 228.235 155.624 229.01 154.742 229.672C153.862 230.342 152.785 230.834 151.513 231.147C149.681 231.599 148.141 231.557 146.894 231.022C145.648 230.494 144.693 229.61 144.028 228.369Z" fill="black"/>
</svg>
