<svg width="226" height="242" viewBox="0 0 226 242" fill="none" xmlns="http://www.w3.org/2000/svg">
<mask id="mask0_710_418" style="mask-type:luminance" maskUnits="userSpaceOnUse" x="65" y="170" width="143" height="72">
<path d="M65.8867 170.012H207.22V241.694H65.8867V170.012Z" fill="white"/>
</mask>
<g mask="url(#mask0_710_418)">
<path d="M131.84 175.361C123.278 186.7 114.72 198.038 108.1 204.877C101.481 211.715 96.8035 214.054 92.1265 216.387L66.9702 241.194C83.4442 236.939 99.9181 232.679 119.371 226.408C138.824 220.137 161.257 211.851 176.288 202.267C191.319 192.679 198.944 181.788 206.574 170.898L131.84 175.361Z" fill="#0A1824"/>
</g>
<path d="M225.595 114.71C223.642 174.429 173.647 221.257 113.929 219.299C54.2098 217.345 7.38169 167.351 9.33482 107.632C11.2932 47.9183 61.2879 1.09019 121.001 3.04332C180.72 4.99644 227.548 54.9912 225.595 114.71Z" fill="#0A1824"/>
<path d="M122.559 172.377C114.001 183.715 105.439 195.054 98.8192 201.892C92.1994 208.731 87.5223 211.069 82.8452 213.403L57.689 238.21C74.1629 233.955 90.6421 229.694 110.095 223.424C129.548 217.153 151.981 208.871 167.007 199.283C182.038 189.694 189.668 178.804 197.293 167.913L122.559 172.377Z" fill="#153E60"/>
<path d="M216.319 111.726C214.361 171.444 164.366 218.272 104.653 216.319C44.9339 214.361 -1.89418 164.366 0.0589413 104.653C2.01207 44.9339 52.0069 -1.89418 111.726 0.0589413C171.444 2.01207 218.272 52.0069 216.319 111.726Z" fill="#153E60"/>
<path d="M210.257 117.127C209.986 120.033 209.595 122.903 209.085 125.731L207.397 125.429C207.897 122.648 208.283 119.825 208.549 116.971L210.257 117.127ZM208.929 126.58C208.387 129.444 207.731 132.262 206.955 135.033L205.304 134.575C206.064 131.851 206.715 129.08 207.246 126.262L208.929 126.58ZM206.72 135.866C205.913 138.663 204.991 141.408 203.96 144.096L202.356 143.481C203.371 140.835 204.278 138.137 205.075 135.392L206.72 135.866ZM203.642 144.903C202.58 147.606 201.403 150.247 200.121 152.83L198.585 152.069C199.845 149.528 201.002 146.929 202.049 144.273L203.642 144.903ZM199.731 153.606C198.418 156.194 196.996 158.715 195.476 161.168L194.022 160.267C195.517 157.856 196.913 155.372 198.2 152.83L199.731 153.606ZM195.017 161.903C193.47 164.356 191.819 166.731 190.075 169.033L188.71 168.002C190.424 165.736 192.043 163.398 193.569 160.986L195.017 161.903ZM189.549 169.726C187.778 172.017 185.913 174.231 183.96 176.361L182.7 175.205C184.621 173.111 186.45 170.929 188.189 168.679L189.549 169.726ZM183.371 177.002C181.403 179.116 179.34 181.148 177.194 183.09L176.043 181.819C178.153 179.908 180.179 177.913 182.121 175.83L183.371 177.002ZM176.549 183.668C174.392 185.59 172.147 187.424 169.83 189.158L168.804 187.788C171.08 186.08 173.288 184.278 175.408 182.392L176.549 183.668ZM169.132 189.674C166.804 191.387 164.403 193.002 161.934 194.512L161.038 193.054C163.465 191.564 165.83 189.976 168.116 188.293L169.132 189.674ZM161.189 194.965C158.715 196.45 156.174 197.83 153.569 199.106L152.814 197.564C155.377 196.314 157.877 194.955 160.309 193.491L161.189 194.965ZM152.788 199.486C150.184 200.726 147.522 201.866 144.809 202.892L144.205 201.288C146.871 200.278 149.491 199.163 152.043 197.939L152.788 199.486ZM143.996 203.194C141.293 204.189 138.538 205.069 135.731 205.835L135.278 204.179C138.038 203.429 140.746 202.564 143.403 201.585L143.996 203.194ZM134.892 206.059C132.111 206.793 129.283 207.408 126.418 207.908L126.121 206.221C128.944 205.731 131.72 205.122 134.455 204.403L134.892 206.059ZM125.564 208.054C122.731 208.523 119.856 208.872 116.95 209.101L116.814 207.392C119.674 207.163 122.496 206.819 125.283 206.361L125.564 208.054ZM116.085 209.163C113.7 209.33 111.293 209.413 108.871 209.413C108.366 209.413 107.871 209.413 107.377 209.403L107.397 207.689C107.892 207.7 108.377 207.7 108.871 207.7C111.257 207.7 113.621 207.616 115.965 207.455L116.085 209.163ZM106.502 209.387C103.59 209.319 100.705 209.132 97.8558 208.825L98.0381 207.122C100.84 207.424 103.674 207.611 106.538 207.674L106.502 209.387ZM96.986 208.731C94.0954 208.392 91.2412 207.934 88.4287 207.361L88.7725 205.684C91.5381 206.247 94.3402 206.694 97.1839 207.028L96.986 208.731ZM87.5745 207.184C84.7308 206.58 81.9287 205.856 79.1735 205.017L79.6735 203.377C82.3766 204.2 85.1318 204.913 87.9339 205.507L87.5745 207.184ZM78.3454 204.762C75.5745 203.892 72.8506 202.903 70.1839 201.809L70.835 200.221C73.4548 201.299 76.1318 202.267 78.861 203.127L78.3454 204.762ZM69.3818 201.476C66.71 200.351 64.0902 199.111 61.5329 197.767L62.335 196.252C64.8454 197.569 67.4183 198.788 70.0485 199.898L69.3818 201.476ZM60.7725 197.361C58.2152 195.991 55.7256 194.512 53.3037 192.934L54.2412 191.497C56.6214 193.049 59.0693 194.502 61.5798 195.851L60.7725 197.361ZM52.5798 192.455C50.1683 190.851 47.8298 189.148 45.5641 187.351L46.6318 186.007C48.8558 187.778 51.1579 189.455 53.5329 191.028L52.5798 192.455ZM44.887 186.809C42.637 184.986 40.4652 183.075 38.3766 181.069L39.5641 179.835C41.6162 181.804 43.7516 183.684 45.9652 185.476L44.887 186.809ZM37.7568 180.471C35.6839 178.45 33.6995 176.34 31.8089 174.153L33.1058 173.033C34.9652 175.184 36.9183 177.257 38.9495 179.241L37.7568 180.471ZM31.2412 173.491C29.3714 171.288 27.5902 169.007 25.9079 166.648L27.3037 165.653C28.96 167.971 30.71 170.215 32.5485 172.382L31.2412 173.491ZM25.4079 165.939C23.7516 163.575 22.1943 161.137 20.736 158.627L22.2204 157.767C23.6527 160.231 25.1839 162.632 26.8141 164.955L25.4079 165.939ZM20.3037 157.877C18.8766 155.366 17.5537 152.793 16.3402 150.158L17.8975 149.444C19.0902 152.033 20.3923 154.564 21.7933 157.028L20.3037 157.877ZM15.9808 149.372C14.7985 146.741 13.7204 144.054 12.762 141.314L14.3766 140.747C15.3193 143.444 16.3766 146.085 17.5433 148.663L15.9808 149.372ZM12.4756 140.497C11.5433 137.773 10.7308 134.997 10.0277 132.174L11.6943 131.762C12.3818 134.538 13.1839 137.262 14.0954 139.939L12.4756 140.497ZM9.82454 131.33C9.15788 128.533 8.60059 125.694 8.1735 122.819L9.86621 122.564C10.2881 125.392 10.835 128.184 11.4912 130.934L9.82454 131.33ZM8.0485 121.955C7.64225 119.116 7.361 116.241 7.19954 113.33L8.90788 113.231C9.06934 116.096 9.35059 118.924 9.74121 121.715L8.0485 121.955ZM7.15267 112.46C7.07975 110.846 7.03809 109.221 7.03809 107.585C7.03809 106.293 7.06413 105.012 7.111 103.731L8.82454 103.793C8.77767 105.054 8.75163 106.314 8.75163 107.585C8.75163 109.194 8.79329 110.793 8.86621 112.382L7.15267 112.46ZM7.14746 102.861C7.27767 99.9497 7.53288 97.0695 7.90788 94.2257L9.60579 94.4497C9.24121 97.2465 8.99121 100.08 8.861 102.939L7.14746 102.861ZM8.02246 93.3663C8.42871 90.4809 8.94954 87.6372 9.59017 84.8403L11.262 85.2205C10.6318 87.9705 10.1162 90.7674 9.72038 93.6007L8.02246 93.3663ZM9.78809 83.9913C10.46 81.1632 11.2464 78.3768 12.1475 75.6476L13.7777 76.184C12.8923 78.8715 12.1162 81.6059 11.4548 84.3872L9.78809 83.9913ZM12.4235 74.8195C13.361 72.0695 14.4079 69.3768 15.5641 66.7361L17.1318 67.4236C15.9964 70.0174 14.9652 72.6684 14.0485 75.3715L12.4235 74.8195ZM15.9183 65.9393C17.1058 63.2934 18.4027 60.7101 19.8037 58.184L21.2985 59.0174C19.9235 61.4965 18.6475 64.0382 17.4808 66.6424L15.9183 65.9393ZM20.2308 57.4288C21.6579 54.908 23.1943 52.4549 24.8245 50.0695L26.2412 51.0382C24.6318 53.382 23.1266 55.7934 21.7204 58.2726L20.2308 57.4288ZM25.3193 49.3559C26.9756 46.9809 28.736 44.6788 30.585 42.4601L31.9027 43.559C30.085 45.7413 28.3558 48.0018 26.7256 50.3351L25.3193 49.3559ZM31.1423 41.7934C33.012 39.5851 34.9756 37.4601 37.0277 35.4184L38.236 36.632C36.2204 38.6424 34.2881 40.7309 32.4495 42.9028L31.1423 41.7934ZM37.6423 34.809C39.71 32.7882 41.8662 30.8507 44.0954 29.007L45.1891 30.3299C42.9912 32.1424 40.8766 34.0434 38.8454 36.033L37.6423 34.809ZM44.7673 28.4601C47.012 26.6372 49.335 24.908 51.736 23.283L52.6995 24.6997C50.3402 26.2986 48.0537 27.9965 45.8506 29.7882L44.7673 28.4601ZM52.4548 22.7986C54.8558 21.1945 57.3298 19.6945 59.8714 18.2986L60.6995 19.7986C58.1995 21.1736 55.7673 22.6476 53.4027 24.2257L52.4548 22.7986ZM60.637 17.882C63.1735 16.5122 65.7777 15.2518 68.4443 14.0955L69.1214 15.6684C66.5068 16.8038 63.9443 18.0434 61.4495 19.3924L60.637 17.882ZM69.2412 13.7517C71.8975 12.632 74.6058 11.6215 77.3662 10.7205L77.8975 12.3507C75.1839 13.2361 72.5173 14.2309 69.9079 15.3299L69.2412 13.7517ZM78.1995 10.4549C80.9391 9.59029 83.736 8.84029 86.5693 8.20487L86.9443 9.87675C84.1579 10.5017 81.4079 11.2413 78.7152 12.0903L78.1995 10.4549ZM87.4235 8.01737C90.2308 7.41842 93.0798 6.92883 95.9704 6.56425L96.1839 8.26737C93.3454 8.62154 90.5433 9.10071 87.7829 9.69446L87.4235 8.01737ZM96.835 6.46008C99.6787 6.12154 102.564 5.908 105.476 5.80904L105.533 7.52258C102.668 7.61633 99.835 7.82987 97.0329 8.16321L96.835 6.46008ZM106.345 5.78821C107.184 5.76737 108.028 5.75696 108.871 5.75696C110.95 5.75696 113.017 5.81946 115.069 5.93925L114.965 7.65279C112.95 7.533 110.918 7.4705 108.871 7.4705C108.038 7.4705 107.21 7.48092 106.387 7.50175L106.345 5.78821ZM115.934 5.99654C118.84 6.19446 121.715 6.51737 124.554 6.95487L124.293 8.64758C121.502 8.2205 118.674 7.90279 115.814 7.70487L115.934 5.99654ZM125.413 7.09029C128.283 7.55904 131.116 8.15279 133.903 8.85592L133.486 10.5174C130.741 9.82467 127.96 9.24654 125.132 8.783L125.413 7.09029ZM134.746 9.07467C137.559 9.80904 140.319 10.6632 143.033 11.6267L142.46 13.2413C139.793 12.2934 137.075 11.4549 134.309 10.7309L134.746 9.07467ZM143.851 11.9236C146.575 12.9184 149.246 14.033 151.861 15.2517L151.137 16.8038C148.569 15.6059 145.939 14.5122 143.262 13.533L143.851 11.9236ZM152.647 15.6215C155.262 16.8663 157.819 18.2257 160.309 19.684L159.444 21.1632C156.996 19.7257 154.481 18.3924 151.908 17.1684L152.647 15.6215ZM161.059 20.1268C163.543 21.6163 165.96 23.2049 168.304 24.8924L167.304 26.283C165.002 24.6215 162.621 23.059 160.179 21.5955L161.059 20.1268ZM169.007 25.4028C171.345 27.1163 173.606 28.9236 175.783 30.8247L174.653 32.1163C172.512 30.2465 170.293 28.4653 167.996 26.783L169.007 25.4028ZM176.434 31.3976C178.595 33.3195 180.679 35.3299 182.674 37.4236L181.429 38.6059C179.47 36.5434 177.424 34.5695 175.293 32.6788L176.434 31.3976ZM183.267 38.059C185.241 40.1684 187.127 42.3663 188.918 44.6372L187.575 45.6997C185.814 43.4653 183.96 41.3038 182.017 39.2257L183.267 38.059ZM189.455 45.3247C191.22 47.6111 192.892 49.9705 194.465 52.4028L193.028 53.3351C191.481 50.9445 189.835 48.6215 188.095 46.3715L189.455 45.3247ZM194.934 53.1372C196.481 55.5747 197.924 58.0851 199.262 60.658L197.741 61.4445C196.429 58.9184 195.007 56.4497 193.486 54.0538L194.934 53.1372ZM199.658 61.4236C200.97 63.9965 202.174 66.632 203.267 69.3195L201.679 69.9653C200.606 67.3195 199.418 64.7309 198.132 62.2049L199.658 61.4236ZM203.585 70.1268C204.647 72.8038 205.595 75.5382 206.434 78.3247L204.788 78.8195C203.97 76.0799 203.038 73.3872 201.991 70.757L203.585 70.1268ZM206.679 79.1528C207.481 81.9184 208.168 84.7361 208.736 87.5903L207.054 87.9236C206.496 85.1163 205.819 82.3507 205.033 79.632L206.679 79.1528ZM208.903 88.4393C209.439 91.2622 209.861 94.132 210.158 97.033L208.455 97.2101C208.158 94.3559 207.746 91.533 207.215 88.757L208.903 88.4393ZM210.241 97.8924C210.512 100.747 210.663 103.632 210.694 106.554L208.981 106.569C208.95 103.7 208.804 100.856 208.538 98.0538L210.241 97.8924ZM210.7 107.429C210.7 107.491 210.7 107.523 210.7 107.585C210.7 110.512 210.575 113.408 210.335 116.267L208.627 116.127C208.861 113.309 208.986 110.46 208.986 107.585C208.986 107.523 208.986 107.491 208.986 107.434L210.7 107.429Z" fill="#ECECEC"/>
<path d="M36.084 70.5615H49.7298C53.0632 70.5615 56.0215 71.2074 58.6048 72.499C61.1882 73.7907 63.1882 75.6188 64.6048 77.9782C66.0319 80.3428 66.7507 83.0719 66.7507 86.1657C66.7507 89.2646 66.0319 91.9938 64.6048 94.3532C63.1882 96.7178 61.1882 98.5407 58.6048 99.8324C56.0215 101.124 53.0632 101.77 49.7298 101.77H36.084V70.5615ZM49.459 96.874C51.7507 96.874 53.7611 96.4365 55.5007 95.5615C57.235 94.6761 58.5684 93.4261 59.5007 91.8115C60.4434 90.1865 60.9173 88.3063 60.9173 86.1657C60.9173 84.0303 60.4434 82.1553 59.5007 80.5407C58.5684 78.9157 57.235 77.6657 55.5007 76.7907C53.7611 75.9053 51.7507 75.4574 49.459 75.4574H41.8757V96.874H49.459Z" fill="#FCFCFD"/>
<path d="M94.7585 89.999C94.7585 90.3896 94.722 90.9365 94.6543 91.6449H75.9876C76.3053 93.3949 77.1543 94.7855 78.5293 95.8115C79.9147 96.8428 81.6387 97.3532 83.696 97.3532C86.3053 97.3532 88.4564 96.4938 90.1543 94.7699L93.1543 98.2074C92.0814 99.4886 90.7272 100.452 89.0918 101.103C87.4512 101.759 85.6126 102.082 83.571 102.082C80.946 102.082 78.6387 101.562 76.6543 100.52C74.6647 99.4782 73.123 98.0355 72.0293 96.1865C70.946 94.3271 70.4043 92.223 70.4043 89.874C70.4043 87.5563 70.9303 85.4678 71.9876 83.6032C73.0397 81.7438 74.5085 80.2907 76.3835 79.249C78.2585 78.2074 80.3678 77.6865 82.7168 77.6865C85.0345 77.6865 87.1022 78.2021 88.9251 79.2282C90.7585 80.2594 92.1855 81.7021 93.2168 83.5615C94.2428 85.4261 94.7585 87.5719 94.7585 89.999ZM82.7168 82.1449C80.9355 82.1449 79.4303 82.6761 78.196 83.7282C76.9564 84.7855 76.2064 86.1969 75.946 87.9574H89.446C89.2064 86.223 88.4772 84.8219 87.2585 83.749C86.0345 82.6813 84.5189 82.1449 82.7168 82.1449Z" fill="#FCFCFD"/>
<path d="M107.464 102.082C105.516 102.082 103.62 101.832 101.777 101.332C99.9434 100.822 98.4746 100.181 97.3809 99.4157L99.5267 95.1657C100.594 95.8896 101.881 96.4678 103.381 96.8949C104.881 97.3271 106.36 97.5407 107.818 97.5407C111.136 97.5407 112.798 96.6605 112.798 94.8949C112.798 94.0771 112.37 93.499 111.527 93.1657C110.678 92.8324 109.324 92.5199 107.464 92.2282C105.49 91.9365 103.886 91.598 102.652 91.2074C101.428 90.8219 100.36 90.1449 99.4434 89.1865C98.5371 88.2178 98.0892 86.8688 98.0892 85.1449C98.0892 82.8844 99.0319 81.0771 100.923 79.7282C102.808 78.3688 105.36 77.6865 108.568 77.6865C110.204 77.6865 111.839 77.874 113.464 78.249C115.1 78.624 116.443 79.124 117.485 79.749L115.339 83.9782C113.324 82.8011 111.053 82.2074 108.527 82.2074C106.886 82.2074 105.641 82.4521 104.798 82.9365C103.949 83.4261 103.527 84.0719 103.527 84.874C103.527 85.7646 103.975 86.3949 104.881 86.7699C105.798 87.1449 107.204 87.4938 109.11 87.8115C111.011 88.1188 112.568 88.4678 113.777 88.8532C114.995 89.2282 116.048 89.8844 116.923 90.8115C117.798 91.7282 118.235 93.0355 118.235 94.7282C118.235 96.9521 117.266 98.7386 115.339 100.082C113.407 101.416 110.782 102.082 107.464 102.082Z" fill="#FCFCFD"/>
<path d="M123.046 77.9573H128.629V101.77H123.046V77.9573ZM125.858 74.0406C124.843 74.0406 123.994 73.7229 123.317 73.0823C122.634 72.4469 122.296 71.6448 122.296 70.6865C122.296 69.7438 122.634 68.9521 123.317 68.3115C123.994 67.6761 124.843 67.3531 125.858 67.3531C126.869 67.3531 127.718 67.6604 128.4 68.2698C129.077 68.8844 129.421 69.6448 129.421 70.5615C129.421 71.5511 129.088 72.374 128.421 73.0406C127.754 73.7073 126.9 74.0406 125.858 74.0406Z" fill="#FCFCFD"/>
<path d="M159.574 77.9574V98.1657C159.574 106.541 155.287 110.728 146.72 110.728C144.438 110.728 142.272 110.437 140.22 109.853C138.162 109.28 136.47 108.442 135.136 107.332L137.636 103.145C138.678 104.004 139.991 104.692 141.574 105.207C143.168 105.733 144.782 105.999 146.407 105.999C149.032 105.999 150.949 105.4 152.157 104.207C153.376 103.025 153.991 101.223 153.991 98.7907V97.5407C153.043 98.5824 151.886 99.374 150.511 99.9157C149.147 100.447 147.647 100.707 146.011 100.707C143.746 100.707 141.699 100.228 139.866 99.2699C138.043 98.3011 136.605 96.9365 135.553 95.1865C134.496 93.4261 133.97 91.4105 133.97 89.1449C133.97 86.8949 134.496 84.9053 135.553 83.1657C136.605 81.4157 138.043 80.0719 139.866 79.124C141.699 78.1657 143.746 77.6865 146.011 77.6865C147.73 77.6865 149.303 77.973 150.72 78.5407C152.136 79.1136 153.313 79.973 154.261 81.124V77.9574H159.574ZM146.866 95.9782C148.975 95.9782 150.704 95.348 152.053 94.0824C153.397 92.8219 154.074 91.1761 154.074 89.1449C154.074 87.1605 153.397 85.5407 152.053 84.2907C150.704 83.0407 148.975 82.4157 146.866 82.4157C144.725 82.4157 142.975 83.0407 141.616 84.2907C140.267 85.5407 139.595 87.1605 139.595 89.1449C139.595 91.1761 140.267 92.8219 141.616 94.0824C142.975 95.348 144.725 95.9782 146.866 95.9782Z" fill="#FCFCFD"/>
<path d="M180.385 77.6865C183.385 77.6865 185.786 78.5719 187.593 80.3324C189.411 82.0824 190.323 84.6813 190.323 88.124V101.77H184.76V88.8324C184.76 86.7646 184.265 85.2021 183.281 84.1449C182.291 83.0928 180.896 82.5615 179.093 82.5615C177.036 82.5615 175.411 83.1813 174.218 84.4157C173.036 85.6396 172.448 87.4105 172.448 89.7282V101.77H166.864V77.9574H172.177V81.0407C173.093 79.9469 174.25 79.1136 175.656 78.5407C177.057 77.973 178.635 77.6865 180.385 77.6865Z" fill="#FCFCFD"/>
<path d="M80.362 124.509V157.842H75.2786L56.9036 135.28V157.842H50.7578V124.509H55.8411L74.2161 147.092V124.509H80.362Z" fill="#FCFCFD"/>
<path d="M104.877 158.321C101.471 158.321 98.403 157.587 95.6686 156.113C92.9447 154.629 90.804 152.582 89.252 149.967C87.7103 147.342 86.9395 144.415 86.9395 141.176C86.9395 137.941 87.7103 135.019 89.252 132.405C90.804 129.78 92.9447 127.733 95.6686 126.259C98.403 124.79 101.471 124.051 104.877 124.051C108.262 124.051 111.325 124.79 114.064 126.259C116.799 127.733 118.939 129.774 120.481 132.384C122.033 134.983 122.814 137.915 122.814 141.176C122.814 144.457 122.033 147.394 120.481 149.988C118.939 152.587 116.799 154.629 114.064 156.113C111.325 157.587 108.262 158.321 104.877 158.321ZM104.877 152.884C107.096 152.884 109.096 152.384 110.877 151.384C112.653 150.384 114.049 148.988 115.064 147.196C116.075 145.405 116.585 143.399 116.585 141.176C116.585 138.957 116.075 136.946 115.064 135.155C114.049 133.363 112.653 131.967 110.877 130.967C109.096 129.967 107.096 129.467 104.877 129.467C102.653 129.467 100.653 129.967 98.877 130.967C97.0957 131.967 95.6999 133.363 94.6895 135.155C93.6738 136.946 93.1686 138.957 93.1686 141.176C93.1686 143.399 93.6738 145.405 94.6895 147.196C95.6999 148.988 97.0957 150.384 98.877 151.384C100.653 152.384 102.653 152.884 104.877 152.884Z" fill="#FCFCFD"/>
<path d="M178.082 124.509L167.04 157.842H160.478L152.249 133.176L143.853 157.842H137.249L126.207 124.509H132.624L140.915 149.842L149.52 124.509H155.249L163.665 149.988L172.186 124.509H178.082Z" fill="#FCFCFD"/>
</svg>
