<svg width="25" height="25" viewBox="0 0 25 25" fill="none" xmlns="http://www.w3.org/2000/svg">
<circle cx="12.5" cy="12.5" r="12.5" fill="black"/>
<path d="M12.8593 8.48018C10.8324 8.48018 9.19743 10.1155 9.19743 12.1429C9.19743 14.1702 10.8324 15.8055 12.8593 15.8055C14.8862 15.8055 16.5212 14.1702 16.5212 12.1429C16.5212 10.1155 14.8862 8.48018 12.8593 8.48018ZM12.8593 14.5241C11.5494 14.5241 10.4786 13.4562 10.4786 12.1429C10.4786 10.8295 11.5463 9.76164 12.8593 9.76164C14.1723 9.76164 15.24 10.8295 15.24 12.1429C15.24 13.4562 14.1692 14.5241 12.8593 14.5241ZM17.5251 8.33036C17.5251 8.80533 17.1426 9.18466 16.6709 9.18466C16.1961 9.18466 15.8168 8.80214 15.8168 8.33036C15.8168 7.85858 16.1993 7.47605 16.6709 7.47605C17.1426 7.47605 17.5251 7.85858 17.5251 8.33036ZM19.9504 9.19741C19.8962 8.05303 19.6349 7.03934 18.7967 6.20416C17.9617 5.36898 16.9482 5.10759 15.8041 5.05021C14.6249 4.98326 11.0905 4.98326 9.91132 5.05021C8.77038 5.1044 7.75691 5.36579 6.91873 6.20097C6.08055 7.03615 5.8224 8.04984 5.76504 9.19423C5.69811 10.3737 5.69811 13.9088 5.76504 15.0883C5.81922 16.2327 6.08055 17.2464 6.91873 18.0816C7.75691 18.9167 8.76719 19.1781 9.91132 19.2355C11.0905 19.3024 14.6249 19.3024 15.8041 19.2355C16.9482 19.1813 17.9617 18.9199 18.7967 18.0816C19.6317 17.2464 19.893 16.2327 19.9504 15.0883C20.0173 13.9088 20.0173 10.3769 19.9504 9.19741ZM18.427 16.3538C18.1784 16.9786 17.6972 17.46 17.0693 17.7118C16.1292 18.0847 13.8983 17.9987 12.8593 17.9987C11.8203 17.9987 9.58625 18.0816 8.64927 17.7118C8.02462 17.4631 7.54338 16.9818 7.29161 16.3538C6.91873 15.4134 7.00478 13.182 7.00478 12.1429C7.00478 11.1037 6.92192 8.86908 7.29161 7.93189C7.5402 7.3071 8.02143 6.82576 8.64927 6.57393C9.58944 6.20097 11.8203 6.28704 12.8593 6.28704C13.8983 6.28704 16.1323 6.20416 17.0693 6.57393C17.694 6.82257 18.1752 7.30392 18.427 7.93189C18.7999 8.87227 18.7138 11.1037 18.7138 12.1429C18.7138 13.182 18.7999 15.4166 18.427 16.3538Z" fill="white"/>
</svg>
