<svg width="16" height="16" viewBox="0 0 16 16" fill="none" xmlns="http://www.w3.org/2000/svg">
<path d="M4.1977 15.2857H1.23597V5.74787H4.1977V15.2857ZM2.71524 4.44682C1.76818 4.44682 1 3.66237 1 2.71528C1 2.26036 1.18071 1.82407 1.50238 1.50239C1.82405 1.18072 2.26033 1 2.71524 1C3.17015 1 3.60643 1.18072 3.9281 1.50239C4.24977 1.82407 4.43048 2.26036 4.43048 2.71528C4.43048 3.66237 3.66199 4.44682 2.71524 4.44682ZM15.2825 15.2857H12.3272V10.6428C12.3272 9.53622 12.3048 8.11719 10.7873 8.11719C9.24745 8.11719 9.01148 9.31938 9.01148 10.563V15.2857H6.05293V5.74787H8.89349V7.04892H8.93495C9.33036 6.29954 10.2962 5.50871 11.7372 5.50871C14.7347 5.50871 15.2857 7.48261 15.2857 10.0464V15.2857H15.2825Z" stroke="white" stroke-width="0.8"/>
</svg>
