<svg width="25" height="25" viewBox="0 0 25 25" fill="none" xmlns="http://www.w3.org/2000/svg">
<circle cx="12.5" cy="12.5" r="12.5" fill="black"/>
<path d="M8.91255 19.2857H5.95081V9.74787H8.91255V19.2857ZM7.43009 8.44682C6.48302 8.44682 5.71484 7.66237 5.71484 6.71528C5.71484 6.26036 5.89556 5.82407 6.21723 5.50239C6.5389 5.18072 6.97518 5 7.43009 5C7.885 5 8.32128 5.18072 8.64295 5.50239C8.96462 5.82407 9.14533 6.26036 9.14533 6.71528C9.14533 7.66237 8.37683 8.44682 7.43009 8.44682ZM19.9974 19.2857H17.042V14.6428C17.042 13.5362 17.0197 12.1172 15.5022 12.1172C13.9623 12.1172 13.7263 13.3194 13.7263 14.563V19.2857H10.7678V9.74787H13.6083V11.0489H13.6498C14.0452 10.2995 15.0111 9.50871 16.4521 9.50871C19.4495 9.50871 20.0006 11.4826 20.0006 14.0464V19.2857H19.9974Z" fill="white"/>
</svg>
