<svg width="25" height="25" viewBox="0 0 25 25" fill="none" xmlns="http://www.w3.org/2000/svg">
<circle cx="12.5" cy="12.5" r="12.5" fill="black"/>
<path d="M20.6448 8.03406C20.4493 7.23341 19.8732 6.60284 19.1418 6.38885C17.8161 6 12.5 6 12.5 6C12.5 6 7.18398 6 5.85821 6.38885C5.1268 6.60288 4.55075 7.23341 4.35523 8.03406C4 9.48529 4 12.5131 4 12.5131C4 12.5131 4 15.541 4.35523 16.9922C4.55075 17.7929 5.1268 18.3972 5.85821 18.6112C7.18398 19 12.5 19 12.5 19C12.5 19 17.816 19 19.1418 18.6112C19.8732 18.3972 20.4493 17.7929 20.6448 16.9922C21 15.541 21 12.5131 21 12.5131C21 12.5131 21 9.48529 20.6448 8.03406ZM10.7614 15.2622V9.76408L15.2045 12.5132L10.7614 15.2622Z" fill="white"/>
</svg>
